<svg width="30" height="30" viewBox="0 0 30 30" fill="none" xmlns="http://www.w3.org/2000/svg">
<g clip-path="url(#clip0)">
<path d="M2.14579 7.50003C2.64627 7.49905 3.1313 7.67336 3.51668 7.99269L14.9979 17.5889L26.5005 8.33542C26.7196 8.15749 26.9717 8.02462 27.2424 7.94444C27.513 7.86426 27.7968 7.83835 28.0774 7.86821C28.3581 7.89807 28.6301 7.9831 28.8778 8.11842C29.1255 8.25374 29.344 8.43668 29.5208 8.65672C29.6987 8.87582 29.8316 9.12793 29.9118 9.39855C29.9919 9.66917 30.0178 9.95297 29.988 10.2336C29.9581 10.5143 29.8731 10.7863 29.7378 11.034C29.6025 11.2817 29.4195 11.5002 29.1995 11.677L16.3474 22.0229C15.9641 22.338 15.4833 22.5102 14.9872 22.5102C14.491 22.5102 14.0103 22.338 13.627 22.0229L0.774899 11.3128C0.558001 11.133 0.378708 10.9122 0.247292 10.6629C0.115873 10.4137 0.0349121 10.141 0.00904465 9.86047C-0.0168228 9.57992 0.0129166 9.29702 0.09655 9.02797C0.180183 8.75893 0.316071 8.50902 0.496433 8.29258C0.695757 8.04686 0.947041 7.84835 1.23222 7.71131C1.5174 7.57428 1.8294 7.50212 2.14579 7.50003Z" fill="#454545"/>
</g>
<defs>
<clipPath id="clip0">
<rect width="30" height="30" fill="white"/>
</clipPath>
</defs>
</svg>
