<svg width="40" height="40" viewBox="0 0 40 40" fill="none" xmlns="http://www.w3.org/2000/svg">
<path fill-rule="evenodd" clip-rule="evenodd" d="M20 0.476074C8.95 0.476074 0 9.42607 0 20.4761C0 29.3261 5.725 36.8011 13.675 39.4511C14.675 39.6261 15.05 39.0261 15.05 38.5011C15.05 38.0261 15.025 36.4511 15.025 34.7761C10 35.7011 8.7 33.5511 8.3 32.4261C8.075 31.8511 7.1 30.0761 6.25 29.6011C5.55 29.2261 4.55 28.3011 6.225 28.2761C7.8 28.2511 8.925 29.7261 9.3 30.3261C11.1 33.3511 13.975 32.5011 15.125 31.9761C15.3 30.6761 15.825 29.8011 16.4 29.3011C11.95 28.8011 7.3 27.0761 7.3 19.4261C7.3 17.2511 8.075 15.4511 9.35 14.0511C9.15 13.5511 8.45 11.5011 9.55 8.75107C9.55 8.75107 11.225 8.22608 15.05 10.8011C16.65 10.3511 18.35 10.1261 20.05 10.1261C21.75 10.1261 23.45 10.3511 25.05 10.8011C28.875 8.20108 30.55 8.75107 30.55 8.75107C31.65 11.5011 30.95 13.5511 30.75 14.0511C32.025 15.4511 32.8 17.2261 32.8 19.4261C32.8 27.1011 28.125 28.8011 23.675 29.3011C24.4 29.9261 25.025 31.1261 25.025 33.0011C25.025 35.6761 25 37.8261 25 38.5011C25 39.0261 25.375 39.6511 26.375 39.4511C30.3453 38.1106 33.7953 35.5589 36.2394 32.155C38.6836 28.7512 39.9988 24.6666 40 20.4761C40 9.42607 31.05 0.476074 20 0.476074Z" fill="#F4F4F4"/>
</svg>
