<svg width="17" height="17" viewBox="0 0 17 17" fill="none" xmlns="http://www.w3.org/2000/svg">
<path d="M15.9139 9.54C15.3286 9.69545 14.7256 9.77414 14.12 9.77407C12.2759 9.77407 10.5441 9.05717 9.24329 7.75638C8.3891 6.89726 7.77499 5.82926 7.46219 4.65884C7.14939 3.48841 7.14882 2.25644 7.46054 1.08573C7.49947 0.939355 7.49922 0.785316 7.45982 0.639066C7.42042 0.492816 7.34326 0.359498 7.23607 0.252484C7.12888 0.145471 6.99544 0.0685252 6.84912 0.0293661C6.70281 -0.00979297 6.54877 -0.00978863 6.40246 0.0293787C4.93683 0.419947 3.59968 1.18906 2.52514 2.25955C-0.841713 5.6264 -0.841713 11.1068 2.52514 14.4754C3.32542 15.2801 4.27735 15.9182 5.32584 16.3526C6.37434 16.787 7.49858 17.0091 8.63349 17.0062C9.76811 17.0093 10.8921 16.7874 11.9403 16.3531C12.9885 15.9188 13.9402 15.2809 14.7401 14.4763C15.8114 13.4015 16.5809 12.0637 16.9712 10.5972C17.0099 10.4509 17.0096 10.297 16.9702 10.1508C16.9308 10.0047 16.8538 9.87142 16.7468 9.76439C16.6397 9.65736 16.5065 9.58031 16.3603 9.54093C16.2142 9.50155 16.0603 9.50123 15.9139 9.54V9.54ZM13.5197 13.2549C12.8796 13.8985 12.1183 14.4087 11.2797 14.7561C10.4411 15.1035 9.54202 15.2811 8.63436 15.2787C7.72639 15.2809 6.82698 15.1032 5.98814 14.7557C5.14931 14.4081 4.38769 13.8978 3.74733 13.2541C1.05419 10.5601 1.05419 6.17574 3.74733 3.48174C4.26773 2.96192 4.86854 2.52939 5.52663 2.20082C5.4303 3.44379 5.60346 4.6929 6.03427 5.8628C6.46508 7.03269 7.14339 8.09579 8.02283 8.97943C8.90453 9.86163 9.96732 10.5418 11.1377 10.973C12.3081 11.4041 13.5581 11.5759 14.8014 11.4765C14.4711 12.1335 14.0384 12.7338 13.5197 13.2549V13.2549Z" fill="#F4F4F4"/>
</svg>
