<svg width="17" height="17" viewBox="0 0 17 17" fill="none" xmlns="http://www.w3.org/2000/svg">
<path d="M8.5 12.75C9.62717 12.75 10.7082 12.3022 11.5052 11.5052C12.3022 10.7082 12.75 9.62717 12.75 8.5C12.75 7.37283 12.3022 6.29183 11.5052 5.4948C10.7082 4.69777 9.62717 4.25 8.5 4.25C7.37283 4.25 6.29183 4.69777 5.4948 5.4948C4.69777 6.29183 4.25 7.37283 4.25 8.5C4.25 9.62717 4.69777 10.7082 5.4948 11.5052C6.29183 12.3022 7.37283 12.75 8.5 12.75ZM8.5 0C8.6409 0 8.77602 0.0559708 8.87565 0.1556C8.97528 0.255228 9.03125 0.390354 9.03125 0.53125V2.65625C9.03125 2.79715 8.97528 2.93227 8.87565 3.0319C8.77602 3.13153 8.6409 3.1875 8.5 3.1875C8.3591 3.1875 8.22398 3.13153 8.12435 3.0319C8.02472 2.93227 7.96875 2.79715 7.96875 2.65625V0.53125C7.96875 0.390354 8.02472 0.255228 8.12435 0.1556C8.22398 0.0559708 8.3591 0 8.5 0V0ZM8.5 13.8125C8.6409 13.8125 8.77602 13.8685 8.87565 13.9681C8.97528 14.0677 9.03125 14.2029 9.03125 14.3438V16.4688C9.03125 16.6096 8.97528 16.7448 8.87565 16.8444C8.77602 16.944 8.6409 17 8.5 17C8.3591 17 8.22398 16.944 8.12435 16.8444C8.02472 16.7448 7.96875 16.6096 7.96875 16.4688V14.3438C7.96875 14.2029 8.02472 14.0677 8.12435 13.9681C8.22398 13.8685 8.3591 13.8125 8.5 13.8125ZM17 8.5C17 8.6409 16.944 8.77602 16.8444 8.87565C16.7448 8.97528 16.6096 9.03125 16.4688 9.03125H14.3438C14.2029 9.03125 14.0677 8.97528 13.9681 8.87565C13.8685 8.77602 13.8125 8.6409 13.8125 8.5C13.8125 8.3591 13.8685 8.22398 13.9681 8.12435C14.0677 8.02472 14.2029 7.96875 14.3438 7.96875H16.4688C16.6096 7.96875 16.7448 8.02472 16.8444 8.12435C16.944 8.22398 17 8.3591 17 8.5ZM3.1875 8.5C3.1875 8.6409 3.13153 8.77602 3.0319 8.87565C2.93227 8.97528 2.79715 9.03125 2.65625 9.03125H0.53125C0.390354 9.03125 0.255228 8.97528 0.1556 8.87565C0.0559708 8.77602 0 8.6409 0 8.5C0 8.3591 0.0559708 8.22398 0.1556 8.12435C0.255228 8.02472 0.390354 7.96875 0.53125 7.96875H2.65625C2.79715 7.96875 2.93227 8.02472 3.0319 8.12435C3.13153 8.22398 3.1875 8.3591 3.1875 8.5ZM14.5106 2.48944C14.6102 2.58906 14.6661 2.72416 14.6661 2.86503C14.6661 3.0059 14.6102 3.141 14.5106 3.24062L13.0082 4.74406C12.9588 4.79339 12.9002 4.8325 12.8357 4.85917C12.7712 4.88583 12.702 4.89953 12.6322 4.89948C12.4912 4.89938 12.3561 4.84329 12.2565 4.74353C12.2071 4.69414 12.168 4.63551 12.1414 4.571C12.1147 4.5065 12.101 4.43737 12.101 4.36756C12.1011 4.22659 12.1572 4.09143 12.257 3.99181L13.7594 2.48944C13.859 2.38984 13.9941 2.33389 14.135 2.33389C14.2758 2.33389 14.4109 2.38984 14.5106 2.48944ZM4.743 12.257C4.84259 12.3566 4.89854 12.4917 4.89854 12.6326C4.89854 12.7735 4.84259 12.9086 4.743 13.0082L3.24062 14.5106C3.14043 14.6073 3.00624 14.6609 2.86694 14.6597C2.72765 14.6585 2.59441 14.6026 2.49591 14.5041C2.39741 14.4056 2.34154 14.2723 2.34033 14.1331C2.33912 13.9938 2.39267 13.8596 2.48944 13.7594L3.99181 12.257C4.09144 12.1574 4.22654 12.1015 4.36741 12.1015C4.50827 12.1015 4.64338 12.1574 4.743 12.257ZM14.5106 14.5106C14.4109 14.6102 14.2758 14.6661 14.135 14.6661C13.9941 14.6661 13.859 14.6102 13.7594 14.5106L12.257 13.0082C12.1602 12.908 12.1067 12.7738 12.1079 12.6345C12.1091 12.4952 12.165 12.362 12.2635 12.2635C12.362 12.165 12.4952 12.1091 12.6345 12.1079C12.7738 12.1067 12.908 12.1602 13.0082 12.257L14.5106 13.7594C14.6102 13.859 14.6661 13.9941 14.6661 14.135C14.6661 14.2758 14.6102 14.4109 14.5106 14.5106ZM4.743 4.74406C4.64338 4.84366 4.50827 4.89961 4.36741 4.89961C4.22654 4.89961 4.09144 4.84366 3.99181 4.74406L2.48944 3.24062C2.4387 3.19162 2.39823 3.133 2.37038 3.06818C2.34254 3.00337 2.32789 2.93366 2.32727 2.86312C2.32666 2.79258 2.3401 2.72263 2.36681 2.65734C2.39353 2.59205 2.43297 2.53273 2.48285 2.48285C2.53273 2.43297 2.59205 2.39353 2.65734 2.36681C2.72263 2.3401 2.79258 2.32666 2.86312 2.32727C2.93366 2.32789 3.00337 2.34254 3.06818 2.37038C3.133 2.39823 3.19162 2.4387 3.24062 2.48944L4.743 3.99181C4.79247 4.04116 4.83173 4.09978 4.85851 4.16433C4.88529 4.22887 4.89907 4.29806 4.89907 4.36794C4.89907 4.43782 4.88529 4.50701 4.85851 4.57155C4.83173 4.63609 4.79247 4.69471 4.743 4.74406Z" fill="#FFF500"/>
</svg>
